<?xml version="1.0" encoding="UTF-8"?>
<svg width="257px" height="27px" viewBox="0 0 257 27" version="1.1" xmlns="http://www.w3.org/2000/svg" xmlns:xlink="http://www.w3.org/1999/xlink">
    <title>logotype</title>
    <g id="Symbols" stroke="none" stroke-width="1" fill="none" fill-rule="evenodd">
        <g id="Header/-Hover" transform="translate(0.000000, -6.000000)" fill-rule="nonzero">
            <g id="logotype" transform="translate(0.000000, 6.000000)">
                <polygon id="Path" fill="#693CFF" points="33 20.1180058 33 26 0 26 0 20.1180058 20.4629074 5.92067906 0.515866209 5.92067906 0.515866209 0 32.5838336 0 32.5838336 5.92067906 11.9588336 20.1180058"></polygon>
                <path d="M73.0747992,20.0758324 L73.0747992,26.6912997 L46,26.6912997 L46,0.270676692 L54.2815744,0.270676692 L54.2815744,20.0758324 L73.0747992,20.0758324 Z M105.295531,0.270676692 L105.295531,6.28614393 L83.2358249,6.28614393 L83.2358249,10.810956 L103.819556,10.810956 L101.351003,16.0337272 L83.237114,16.0337272 L83.237114,20.7138561 L105.294242,20.7138561 L105.294242,26.6912997 L74.9568287,26.6912997 L74.9568287,0.270676692 L105.295531,0.270676692 Z M115.735639,26.6912997 L106.537542,26.6912997 L121.687235,0.270676692 L132.876287,0.270676692 L147.707582,26.6912997 L138.568782,26.6912997 L136.001616,21.8938776 L118.443312,21.8938776 L115.735639,26.6912997 Z M121.328231,16.4397422 L132.996169,16.4397422 L127.162523,5.9755102 L121.330809,16.4397422 L121.328231,16.4397422 Z M183.580869,11.7976369 L183.620185,17.349087 C183.620185,20.5972073 183.043975,23.0062299 181.888331,24.5722879 C180.733977,26.1402793 178.485854,26.9226638 175.140095,26.9226638 L170.820451,26.9619764 L165.883346,26.9226638 L161.602373,26.8846402 C158.484779,26.8846402 156.005269,26.6816327 154.166423,26.2756176 C152.328866,25.8696026 150.87545,24.966058 149.807463,23.5675618 C148.739475,22.1684211 148.205159,20.0236305 148.205159,17.1364125 L148.125882,13.809667 C148.125882,8.66423201 148.775569,5.10225564 150.075587,3.12373792 C151.377539,1.14328679 154.450017,0.154027927 159.293665,0.154027927 L165.485026,0.0380236305 L167.774399,0 L173.308984,0.115359828 C176.905465,0.115359828 179.510013,0.71471536 181.121984,1.91471536 C182.7346,3.11407089 183.540908,5.42835661 183.540908,8.85821697 L183.540908,9.34221267 L175.439158,9.34221267 C175.439158,8.70934479 175.343122,8.16799141 175.149763,7.71815252 C174.958338,7.2650913 174.603201,6.94994629 174.085643,6.76949517 C173.606112,6.59742213 173.10789,6.4839957 172.600645,6.4311493 C171.916153,6.3783029 171.229083,6.35574651 170.542014,6.36348013 L160.965577,6.32416756 C159.001692,6.32416756 157.760971,6.78882922 157.243413,7.71686359 C156.72521,8.64554243 156.466753,10.2058002 156.466753,12.3969925 L156.466753,14.8537057 C156.466753,16.6723953 156.726499,18.0219119 157.243413,18.905478 C157.760971,19.789044 158.497025,20.2923738 159.453508,20.4141783 C160.408703,20.5372718 161.142179,20.6107411 161.652002,20.6365199 C162.163115,20.6622986 162.817314,20.6758324 163.613309,20.6758324 L170.979005,20.7138561 C172.373125,20.7138561 173.470761,20.4889366 174.273846,20.0371643 C175.07822,19.5860365 175.479118,18.741783 175.479118,17.5031149 L175.439158,16.7484425 L164.946843,16.7484425 L164.946843,11.7976369 L183.580869,11.7976369 Z M222.290735,0.309989259 L222.290735,16.9037594 C222.290735,21.03029 221.182143,23.7447905 218.966246,25.0459721 C216.75035,26.349087 213.333048,27 208.714342,27 L201.946125,26.9619764 C198.36189,26.9619764 195.618768,26.777014 193.712891,26.410956 C191.808947,26.0429646 190.273031,25.107841 189.105141,23.6055854 C187.937251,22.1046187 187.353307,19.7407089 187.353307,16.5177229 L187.353307,0.308700322 L195.634881,0.308700322 L195.634881,14.1377014 C195.634881,16.7819549 195.959724,18.4968851 196.609411,19.2831364 C197.260387,20.0706767 198.905874,20.4631579 201.546516,20.4631579 L205.249345,20.52116 L208.674381,20.4631579 C210.930238,20.4631579 212.376565,20.1209452 213.014006,19.4384533 C213.650802,18.7540279 213.969845,17.3690655 213.969845,15.2796992 L213.969845,0.308700322 L222.290735,0.308700322 L222.290735,0.309989259 Z M257,0.270676692 L257,6.28614393 L234.942227,6.28614393 L234.942227,10.810956 L255.525958,10.810956 L253.058051,16.0337272 L234.942227,16.0337272 L234.942227,20.7138561 L257,20.7138561 L257,26.6912997 L226.661298,26.6912997 L226.661298,0.270676692 L257,0.270676692 Z" id="Shape" fill="#020248"></path>
            </g>
        </g>
    </g>
</svg>